HIERARCHY
ROOT Hips
{
  OFFSET 13.1901 99.3847 -178.854
  CHANNELS 6 Xposition Yposition Zposition Zrotation Xrotation Yrotation
  JOINT RightUpLeg
  {
    OFFSET -8.9458 -8.66707 0.101652
    CHANNELS 3 Zrotation Xrotation Yrotation
    JOINT RightLeg
    {
      OFFSET 0 -44.4227 1.3727
      CHANNELS 3 Zrotation Xrotation Yrotation
      JOINT RightFoot
      {
        OFFSET 0.253549 -42.0924 -1.46059
        CHANNELS 3 Zrotation Xrotation Yrotation
        JOINT RightToes
        {
          OFFSET 0.04 -4.41509 8.4991
          CHANNELS 3 Zrotation Xrotation Yrotation
          End Site
          {
            OFFSET -0.08 -0.137448 9.77979
          }
        }
      }
    }
  }
  JOINT Spine
  {
    OFFSET 0 11.8905 0
    CHANNELS 3 Zrotation Xrotation Yrotation
    JOINT Spine1
    {
      OFFSET 0 25.6574 0.127663
      CHANNELS 3 Zrotation Xrotation Yrotation
      JOINT HEad
      {
        OFFSET 0 8.73416 0.011341
        CHANNELS 3 Zrotation Xrotation Yrotation
        End Site
        {
          OFFSET -0.29 12.7742 2.51395
        }
      }
      JOINT LeftShoulder1
      {
        OFFSET 8.99 -0.362252 -0.22
        CHANNELS 3 Zrotation Xrotation Yrotation
        JOINT LeftArm
        {
          OFFSET 10.2827 -0.00338 0.322123
          CHANNELS 3 Zrotation Xrotation Yrotation
          JOINT LeftForeArm
          {
            OFFSET 32.7669 0.099144 -1.42434
            CHANNELS 3 Zrotation Xrotation Yrotation
            JOINT LeftHand
            {
              OFFSET 27.5643 0.085362 1.02216
              CHANNELS 3 Zrotation Xrotation Yrotation
              End Site
              {
                OFFSET 16.7443 -0.6 1.50291
              }
            }
          }
        }
      }
      JOINT RightShoulder
      {
        OFFSET -8.99 -0.362252 -0.22
        CHANNELS 3 Zrotation Xrotation Yrotation
        JOINT RightArm
        {
          OFFSET -10.2827 -0.00338 0.322123
          CHANNELS 3 Zrotation Xrotation Yrotation
          JOINT RightForeArm
          {
            OFFSET -32.8971 0.099144 -1.42434
            CHANNELS 3 Zrotation Xrotation Yrotation
            JOINT RightHand
            {
              OFFSET -27.4921 0.085362 1.02216
              CHANNELS 3 Zrotation Xrotation Yrotation
              End Site
              {
                OFFSET -16.6312 -0.6 1.50291
              }
            }
          }
        }
      }
    }
  }
  JOINT LeftUpLeg
  {
    OFFSET 8.9458 -8.66707 0.101652
    CHANNELS 3 Zrotation Xrotation Yrotation
    JOINT LeftLeg
    {
      OFFSET 0 -44.4227 1.3727
      CHANNELS 3 Zrotation Xrotation Yrotation
      JOINT LeftFoot
      {
        OFFSET -0.253549 -42.0924 -1.46059
        CHANNELS 3 Zrotation Xrotation Yrotation
        JOINT LeftToes
        {
          OFFSET -0.04 -4.41509 8.4991
          CHANNELS 3 Zrotation Xrotation Yrotation
          End Site
          {
            OFFSET 0.08 -0.047448 9.77979
          }
        }
      }
    }
  }
}
MOTION
Frames:	10
Frame Time:	0.0166667
14.1987 98.6511 -189.276 -2.2797 0.00288577 9.24698 2.64747 -29.5267 -2.59342 2.1315 25.2502 -25.3295 -0.541716 -8.14768 -0.259674 0.0462048 0.000533964 0.662642 -0.0476154 3.0472 -0.379014 -0.270271 -2.70066 -0.254805 2.47804 0.730588 -4.0477 2.48481e-016 2.48481e-016 -1.59028e-015 -89.7952 -10.566 -17.5972 -22.8548 14.2969 -12.7678 0.368473 9.90896 -0.00117926 3.62201 -0.315207 -6.21074 84.8818 -25.609 6.6992 21.1489 13.5709 9.15462 -0.369625 9.91382 0.00119886 -3.0462 11.7441 -0.0456437 6.91726 25.6878 2.19245 -0.342713 -5.43197 0.0272745 1.67607e-011 1.82691e-011 -3.56079e-011 
14.0407 98.8707 -186.992 -2.97169 -0.430157 8.72825 4.27788 -28.304 -1.48176 2.12838 26.243 -24.988 -0.739275 -8.63753 -0.271417 -0.406153 -3.62715 -1.45706 -0.0211591 3.058 -0.166962 0.737596 -2.4293 -0.234621 2.25844 0.439476 -3.81475 3.60297e-016 -4.96962e-017 -0 -90.2188 -11.8601 -16.3881 -22.4641 14.0547 -11.6182 0.368473 9.90896 -0.00117926 2.99286 -0.28746 -6.09208 85.2647 -25.54 6.8547 21.0627 13.5432 8.9989 -0.369625 9.91382 0.00119886 -1.90929 11.2201 0.0808301 7.13749 29.1878 2.64979 -0.861513 -3.24879 0.0379888 5.49967 1.34744 -2.19571 
13.8654 99.0808 -184.765 -3.64299 -0.817897 8.29909 5.81642 -27.0675 -0.332895 2.16597 27.112 -24.8971 -0.931796 -9.3396 -0.288624 -1.01677 -6.52836 -3.36549 0.105167 3.10498 -0.00705394 1.59327 -2.17728 -0.218553 2.11043 0.298971 -3.63758 -4.9075e-016 1.98785e-016 -1.59028e-015 -90.5185 -13.1426 -15.2564 -22.0713 13.7948 -10.3626 0.368473 9.90896 -0.00117926 2.45731 -0.26253 -5.97701 85.6311 -25.4599 7.01098 20.9871 13.5205 8.87065 -0.369625 9.91382 0.00119886 -0.786167 10.2939 0.0696381 7.3291 33.0762 3.07161 -1.36661 -0.819376 0.0623123 10.9222 3.1813 -4.41911 
13.6317 99.2944 -182.686 -4.22059 -1.09243 8.11251 7.20543 -25.7294 1.09209 2.36478 27.5241 -25.6326 -1.1271 -10.6439 -0.322125 -1.38017 -7.28958 -4.46846 0.483658 3.25234 0.00858697 1.99006 -1.97948 -0.214165 2.19608 0.620818 -3.63016 -1.11816e-016 9.93923e-017 -1.59028e-015 -90.555 -14.3581 -14.3425 -21.6834 13.4795 -8.73147 0.368473 9.90896 -0.00117926 2.22493 -0.247628 -5.88572 85.9415 -25.3786 7.17112 20.9277 13.506 8.7827 -0.369625 9.91382 0.00119886 0.328951 8.28345 -0.369534 7.44471 38.1034 3.58079 -1.8885 2.58938 0.133729 16.7133 6.07832 -7.05101 
13.3938 99.4347 -180.713 -4.79399 -1.26923 8.06528 8.43894 -24.533 2.32382 2.63414 27.935 -26.4718 -1.28447 -12.2292 -0.362148 -1.70148 -7.30424 -5.57715 1.05771 3.45245 -0.0522893 2.24038 -1.80859 -0.215141 2.30123 1.07321 -3.67329 -1.86361e-016 0 3.18055e-015 -90.5085 -15.5778 -13.546 -21.2965 13.1689 -7.1027 0.368473 9.90896 -0.00117926 2.04207 -0.232448 -5.77194 86.2493 -25.2217 7.32948 20.9116 13.5113 8.80623 -0.369625 9.91382 0.00119886 1.2596 5.62519 -0.900545 7.82088 43.5919 3.52771 -2.29428 5.76312 0.207327 21.2303 10.2042 -9.14706 
13.1901 99.3847 -178.854 -5.47754 -1.32752 8.12717 9.59 -23.8193 2.83285 2.86672 28.8666 -26.7148 -1.36053 -13.9536 -0.404899 -2.34257 -7.52621 -7.63548 1.89797 3.70654 -0.171067 2.57758 -1.65012 -0.217483 2.2284 1.45628 -3.68957 -2.98177e-016 0 -1.59028e-015 -90.5177 -16.8913 -12.8292 -20.8939 12.9271 -5.75116 0.368473 9.90896 -0.00117926 1.70943 -0.208098 -5.5965 86.6134 -24.8995 7.46019 20.974 13.5536 9.05222 -0.369625 9.91382 0.00119886 1.8318 2.43707 -1.13882 9.61987 49.2801 1.27429 -2.42881 7.70551 0.248241 22.1289 17.2113 -9.73228 
13.0272 99.278 -177.059 -6.13551 -1.30989 8.23251 10.5824 -23.2506 3.12717 3.17803 29.8526 -26.883 -1.36733 -15.6689 -0.442628 -3.00065 -7.80654 -9.71573 2.77565 3.93217 -0.292523 2.93176 -1.50055 -0.221683 2.08828 1.68601 -3.66668 -9.93923e-017 3.97569e-016 -0 -90.5332 -18.1946 -12.1423 -20.5769 12.7436 -4.70384 0.368473 9.90896 -0.00117926 1.27301 -0.177477 -5.35825 86.9736 -24.4685 7.62618 21.0943 13.6177 9.41445 -0.369625 9.91382 0.00119886 2.19531 -1.00342 -1.55391 12.2517 54.6023 -1.55126 -2.34187 8.49568 0.255433 20.7829 23.4444 -9.31759 
12.9441 99.2173 -175.287 -6.68505 -1.23969 8.29401 11.2813 -22.5881 3.64596 3.78452 30.5256 -27.4468 -1.27213 -17.143 -0.461327 -3.43152 -8.37727 -10.965 3.46446 4.03093 -0.334891 3.38872 -1.35756 -0.225952 1.87835 1.53819 -3.53537 -4.96962e-017 -7.95139e-016 -0 -90.6114 -19.4099 -11.4411 -20.4493 12.6294 -4.08578 0.368473 9.90896 -0.00117926 0.618682 -0.139489 -5.04442 87.2757 -23.8959 7.85819 21.3144 13.7059 9.87791 -0.369625 9.91382 0.00119886 2.35102 -4.38475 -2.62911 13.8682 59.0393 -2.27391 -2.0064 7.56056 0.203503 17.802 24.9001 -7.62859 
12.8827 99.1785 -173.52 -7.08428 -1.15421 8.34644 11.7865 -21.8519 4.00458 4.32121 31.0716 -27.8414 -1.15875 -18.4857 -0.473391 -3.8493 -9.08875 -12.1109 4.02129 4.05216 -0.358762 3.71477 -1.20314 -0.228499 1.74276 1.23339 -3.38874 -9.93923e-017 3.97569e-016 1.59028e-015 -90.5655 -20.5456 -10.6627 -20.4859 12.5845 -3.87835 0.368473 9.90896 -0.00117926 0.0271798 -0.0971949 -4.65073 87.5533 -23.3598 8.22403 21.4815 13.7841 10.2799 -0.369625 9.91382 0.00119886 2.25614 -7.67787 -3.94826 14.6756 62.6018 -2.11226 -1.51604 5.86031 0.132585 13.6944 24.0659 -5.25747 
12.7903 99.1806 -171.717 -7.22956 -1.10618 8.40214 12.1871 -20.9609 4.01812 4.42848 31.5685 -27.628 -1.08493 -19.6885 -0.482095 -4.48327 -9.9791 -13.8419 4.41288 3.99763 -0.405863 3.63291 -1.0054 -0.228638 1.88694 0.925419 -3.33563 -9.93923e-017 0 6.36111e-015 -90.1509 -21.5677 -9.6853 -20.7251 12.6175 -4.17335 0.368473 9.90896 -0.00117926 -0.151291 -0.0517451 -4.1346 87.7786 -23.0949 8.82988 21.419 13.8162 10.425 -0.369625 9.91382 0.00119886 1.97245 -10.7413 -5.23573 14.958 65.0274 -2.18635 -0.917342 4.26646 0.0733573 9.30437 22.0356 -2.84281 
